<?xml version="1.0" encoding="utf-8"?>
<!-- Generator: Adobe Illustrator 17.0.0, SVG Export Plug-In . SVG Version: 6.00 Build 0)  -->
<!DOCTYPE svg PUBLIC "-//W3C//DTD SVG 1.1//EN" "http://www.w3.org/Graphics/SVG/1.1/DTD/svg11.dtd">
<svg version="1.1" id="Слой_1" xmlns="http://www.w3.org/2000/svg" xmlns:xlink="http://www.w3.org/1999/xlink" x="0px" y="0px"
	 width="1093.71px" height="233.646px" viewBox="0 0 1093.71 233.646" style="enable-background:new 0 0 1093.71 233.646;"
	 xml:space="preserve">
<style type="text/css">
	.st0{fill:#575655;}
	.st1{fill-rule:evenodd;clip-rule:evenodd;fill:#009640;}
	.st2{fill-rule:evenodd;clip-rule:evenodd;fill:#FFFFFF;}
	.st3{fill-rule:evenodd;clip-rule:evenodd;fill:#575655;}
</style>
<g>
	<path class="st0" d="M0,191.993h19.873v4.015H4.266v10.087c1.756-0.201,4.015-0.301,5.37-0.301c7.879,0,12.295,4.015,12.295,10.338
		c0,7.277-5.069,11.191-13.5,11.191c-3.563,0-6.373-0.201-8.431-0.201V191.993z M4.266,210.11v12.998c1.556,0.1,3.111,0.2,4.818,0.2
		c5.771,0,8.581-2.609,8.581-6.875c0-3.915-2.659-6.624-8.28-6.624C8.03,209.809,6.123,209.909,4.266,210.11"/>
	<path class="st0" d="M44.923,191.492c10.188,0,17.916,7.377,17.916,18.066c0,10.438-7.728,18.066-17.916,18.066
		s-17.916-7.377-17.916-18.066C27.007,199.371,34.485,191.492,44.923,191.492 M44.923,223.61c8.029,0,13.399-6.123,13.399-14.052
		c0-8.18-5.871-14.052-13.399-14.052c-7.628,0-13.399,5.872-13.399,14.052C31.524,217.537,37.395,223.61,44.923,223.61"/>
	<path class="st0" d="M90.213,196.008H77.465l-0.602,6.624c-2.058,22.333-6.775,25.193-12.295,24.491l0.05-4.266
		c2.509,0.251,6.724-1.004,8.33-23.838l0.502-7.025h21.028v35.129h-4.266V196.008z"/>
	<path class="st0" d="M107.499,205.042c1.907-0.151,3.764-0.251,4.918-0.251c9.083,0,13.249,4.215,13.249,10.84
		c0,7.376-5.219,11.592-14.202,11.592c-3.012,0-6.173-0.1-8.231-0.1v-35.129h4.266V205.042z M107.499,209.106v13.951
		c1.355,0.051,2.861,0.151,4.466,0.151c5.771,0,9.184-2.409,9.184-7.478c0-4.566-3.362-6.925-9.033-6.925
		C110.962,208.805,109.255,208.906,107.499,209.106"/>
	<polygon class="st0" points="131.807,191.994 136.072,191.994 136.072,223.109 149.37,223.109 149.37,191.994 153.636,191.994 
		153.636,223.109 166.936,223.109 166.936,191.994 171.201,191.994 171.201,227.123 131.807,227.123 	"/>
	<polygon class="st0" points="180.006,191.994 199.829,191.994 199.829,196.008 184.272,196.008 184.272,207.35 198.323,207.35 
		198.323,211.365 184.272,211.365 184.272,223.109 200.331,223.109 200.331,227.123 180.006,227.123 	"/>
	<polygon class="st0" points="216.386,191.994 245.242,191.994 245.242,196.008 232.947,196.008 232.947,227.123 228.682,227.123 
		228.682,196.008 216.386,196.008 	"/>
	<polygon class="st0" points="250.469,191.994 270.292,191.994 270.292,196.008 254.735,196.008 254.735,207.35 268.786,207.35 
		268.786,211.365 254.735,211.365 254.735,223.109 270.794,223.109 270.794,227.123 250.469,227.123 	"/>
	<path class="st0" d="M301.049,196.008h-12.747l-0.602,6.624c-2.058,22.333-6.775,25.193-12.295,24.491l0.05-4.266
		c2.509,0.251,6.724-1.004,8.33-23.838l0.502-7.025h21.028v35.129h-4.266V196.008z"/>
	<polygon class="st0" points="314.07,191.994 333.893,191.994 333.893,196.008 318.336,196.008 318.336,207.35 332.387,207.35 
		332.387,211.365 318.336,211.365 318.336,223.109 334.395,223.109 334.395,227.123 314.07,227.123 	"/>
	<path class="st0" d="M340.891,192.044c1.958-0.05,6.374-0.201,9.636-0.201c8.381,0,11.291,3.815,11.291,8.682
		c0,4.416-2.66,7.026-6.022,8.13v0.101c4.366,0.702,7.277,3.512,7.277,8.33c0,7.126-5.47,10.188-12.747,10.188
		c-3.111,0-7.377-0.101-9.435-0.201V192.044z M345.157,196.008v11.343h5.621c3.713,0,6.774-2.058,6.774-5.872
		c0-3.664-2.458-5.621-7.126-5.621C348.57,195.857,346.412,195.957,345.157,196.008 M345.157,211.113v11.944
		c1.154,0.101,3.413,0.201,5.42,0.201c5.169,0,8.23-2.108,8.23-6.424c0-3.713-2.91-5.721-7.979-5.721H345.157z"/>
	<polygon class="st0" points="370.112,227.122 370.112,191.993 374.378,191.993 374.378,220.096 395.706,191.993 399.47,191.993 
		399.47,227.122 395.204,227.122 395.204,199.018 373.876,227.122 	"/>
	<path class="st0" d="M404.813,223.108h3.763c1.456-1.807,5.019-9.385,5.772-24.089l0.351-7.026h20.676v31.115h4.768v10.538h-4.015
		v-6.524h-27.3v6.524h-4.015V223.108z M413.294,223.108h17.815v-27.1h-12.295l-0.451,6.273
		C417.509,214.375,414.599,221.501,413.294,223.108"/>
	<polygon class="st0" points="445.866,191.994 465.689,191.994 465.689,196.008 450.132,196.008 450.132,207.35 464.183,207.35 
		464.183,211.365 450.132,211.365 450.132,223.109 466.191,223.109 466.191,227.123 445.866,227.123 	"/>
	<polygon class="st0" points="496.274,211.214 476.953,211.214 476.953,227.122 472.687,227.122 472.687,191.993 476.953,191.993 
		476.953,207.199 496.274,207.199 496.274,191.993 500.54,191.993 500.54,227.122 496.274,227.122 	"/>
	<polygon class="st0" points="509.295,227.122 509.295,191.993 513.561,191.993 513.561,220.096 534.889,191.993 538.653,191.993 
		538.653,227.122 534.387,227.122 534.387,199.018 513.059,227.122 	"/>
	<path class="st0" d="M564.706,214.074h-6.574l-9.084,13.048h-4.817l9.735-13.8c-3.613-1.456-6.925-4.818-6.925-9.836
		c0-6.324,4.215-11.643,13.7-11.643c2.359,0,6.173,0.15,8.23,0.15v35.129h-4.265V214.074z M564.706,210.06v-14.052
		c-1.154-0.05-3.262-0.15-4.768-0.15c-5.47,0-8.381,3.212-8.381,7.377c0,3.713,3.012,6.322,6.073,6.825H564.706z"/>
	<rect x="591.552" y="207.601" class="st0" width="31.314" height="3.513"/>
	<path class="st0" d="M645.948,191.993h19.873v4.015h-15.607v10.087c1.756-0.201,4.014-0.301,5.369-0.301
		c7.879,0,12.296,4.015,12.296,10.338c0,7.277-5.07,11.191-13.5,11.191c-3.563,0-6.373-0.201-8.431-0.201V191.993z M650.214,210.11
		v12.998c1.555,0.1,3.111,0.2,4.818,0.2c5.771,0,8.581-2.609,8.581-6.875c0-3.915-2.66-6.624-8.281-6.624
		C653.977,209.809,652.071,209.909,650.214,210.11"/>
	<path class="st0" d="M691.373,191.492c10.187,0,17.916,7.377,17.916,18.066c0,10.438-7.729,18.066-17.916,18.066
		c-10.187,0-17.916-7.377-17.916-18.066C673.457,199.371,680.935,191.492,691.373,191.492 M691.373,223.61
		c8.029,0,13.399-6.123,13.399-14.052c0-8.18-5.871-14.052-13.399-14.052c-7.628,0-13.399,5.872-13.399,14.052
		C677.974,217.537,683.845,223.61,691.373,223.61"/>
	<path class="st0" d="M737.163,196.008h-12.746l-0.603,6.624c-2.057,22.333-6.774,25.193-12.295,24.491l0.051-4.266
		c2.509,0.251,6.724-1.004,8.33-23.838l0.502-7.025h21.027v35.129h-4.266V196.008z"/>
	<path class="st0" d="M754.953,205.042c1.907-0.151,3.763-0.251,4.918-0.251c9.083,0,13.249,4.215,13.249,10.84
		c0,7.376-5.22,11.592-14.203,11.592c-3.011,0-6.172-0.1-8.23-0.1v-35.129h4.266V205.042z M754.953,209.106v13.951
		c1.354,0.051,2.86,0.151,4.466,0.151c5.771,0,9.184-2.409,9.184-7.478c0-4.566-3.363-6.925-9.033-6.925
		C758.416,208.805,756.709,208.906,754.953,209.106"/>
	<polygon class="st0" points="779.761,191.994 784.027,191.994 784.027,223.109 797.326,223.109 797.326,191.994 801.591,191.994 
		801.591,223.109 814.89,223.109 814.89,191.994 819.156,191.994 819.156,227.123 779.761,227.123 	"/>
	<polygon class="st0" points="828.462,191.994 848.284,191.994 848.284,196.008 832.728,196.008 832.728,207.35 846.779,207.35 
		846.779,211.365 832.728,211.365 832.728,223.109 848.787,223.109 848.787,227.123 828.462,227.123 	"/>
	<polygon class="st0" points="893.95,196.008 874.88,196.008 874.88,227.123 870.614,227.123 870.614,191.994 898.215,191.994 
		898.215,227.123 893.95,227.123 	"/>
	<path class="st0" d="M929.94,196.008h-12.746l-0.603,6.624c-2.057,22.333-6.774,25.193-12.295,24.491l0.051-4.266
		c2.509,0.251,6.724-1.004,8.33-23.838l0.502-7.025h21.027v35.129h-4.266V196.008z"/>
	<path class="st0" d="M943.462,191.994h4.266v15.205h7.578c1.003-9.033,7.678-15.707,17.062-15.707
		c10.187,0,17.414,7.377,17.414,18.066c0,10.438-7.227,18.066-17.414,18.066c-9.184,0-16.411-6.624-17.113-16.409h-7.527v15.908
		h-4.266V191.994z M972.468,223.61c8.08,0,12.797-6.123,12.797-14.052c0-8.18-5.219-14.052-12.797-14.052
		c-7.377,0-12.746,5.872-12.746,14.052C959.722,217.537,965.192,223.61,972.468,223.61"/>
	<path class="st0" d="M1024.14,223.71c-2.358,2.409-6.724,3.914-11.09,3.914c-10.539,0-17.816-7.126-17.816-18.066
		c0-10.087,6.523-18.066,17.514-18.066c4.517,0,8.18,1.254,10.69,3.413l-1.958,3.212c-2.309-1.707-5.019-2.611-8.681-2.611
		c-7.629,0-13.048,5.721-13.048,14.052c0,8.381,5.57,14.052,13.699,14.052c3.363,0,6.575-1.154,8.984-3.112L1024.14,223.71z"/>
	<path class="st0" d="M1044.594,191.492c10.187,0,17.916,7.377,17.916,18.066c0,10.438-7.729,18.066-17.916,18.066
		c-10.187,0-17.916-7.377-17.916-18.066C1026.678,199.371,1034.156,191.492,1044.594,191.492 M1044.594,223.61
		c8.03,0,13.399-6.123,13.399-14.052c0-8.18-5.871-14.052-13.399-14.052c-7.628,0-13.399,5.872-13.399,14.052
		C1031.195,217.537,1037.066,223.61,1044.594,223.61"/>
	<path class="st0" d="M1069.433,192.044c1.958-0.05,6.374-0.201,9.635-0.201c8.382,0,11.292,3.815,11.292,8.682
		c0,4.416-2.66,7.026-6.022,8.13v0.101c4.366,0.702,7.277,3.512,7.277,8.33c0,7.126-5.471,10.188-12.748,10.188
		c-3.11,0-7.376-0.101-9.434-0.201V192.044z M1073.699,196.008v11.343h5.62c3.714,0,6.776-2.058,6.776-5.872
		c0-3.664-2.46-5.621-7.127-5.621C1077.111,195.857,1074.953,195.957,1073.699,196.008 M1073.699,211.113v11.944
		c1.154,0.101,3.412,0.201,5.419,0.201c5.17,0,8.231-2.108,8.231-6.424c0-3.713-2.911-5.721-7.98-5.721H1073.699z"/>
	<path class="st1" d="M76.263,0.001c41.988,0,76.024,34.037,76.024,76.021c0,41.983-34.036,76.026-76.024,76.026
		c-41.983,0-76.02-34.043-76.02-76.026C0.243,34.038,34.28,0.001,76.263,0.001"/>
	<path class="st2" d="M54.833,31.318c9.952,0,18.018,8.067,18.018,18.019c0,9.952-8.066,18.021-18.018,18.021
		c-9.953,0-18.022-8.069-18.022-18.021C36.811,39.385,44.88,31.318,54.833,31.318"/>
	<path class="st0" d="M503.381,74.537c10.122-5.63,15.09-14.119,15.09-25.694c0-20.34-14.718-33.228-37.603-33.228h-48.809v120.883
		h50.851c22.886,0,37.231-13.441,37.231-34.624c0-8.486-2.216-15.299-7.535-20.892C510.08,78.422,508.203,77.045,503.381,74.537
		 M455.739,64.506V36.631h23.273c9.7,0,15.703,5.262,15.703,13.941c0,8.67-6.003,13.934-15.703,13.934H455.739z M412.727,36.631
		V15.615h-87.294v21.016h31.766v99.867h23.775V36.631H412.727z M306.023,136.498V15.615h-23.755V65.01h-41.149V15.615h-23.752
		v120.883h23.752V85.894h41.149v50.604H306.023z M455.739,115.412V85.703h24.77c9.742,0,15.91,5.586,15.91,14.75
		c0,9.217-6.168,14.959-15.91,14.959H455.739z"/>
	<path class="st0" d="M704.03,136.497V15.613h-88.745v120.885h23.75V36.67h41.217v99.828H704.03z M824.098,136.523V15.613h-74.854
		l-1.857,70.645c-0.641,23.131-9.081,29.208-20.037,29.208h-3.912v21.058h10.432c23.591,0,36.485-15.249,37.418-49.258l1.358-50.596
		h27.641v99.854H824.098z M963.139,78.805L963.139,78.805c0,16.806-0.683,25.43-5.783,31.067c-3.808,4.209-9.376,6.617-15.372,6.617
		c-5.988,0-11.446-2.408-15.256-6.617c-4.538-5.126-5.96-12.221-5.96-29.863v-7.516c0-15.28,1.243-24.933,5.96-30.369
		c3.692-4.25,9.102-6.482,15.256-6.482c6.134,0,11.682,2.232,15.372,6.482c4.63,5.216,5.783,13.885,5.783,29.54V78.805z
		 M941.984,14.581c-12.579,0-24.01,4.129-32.821,13.271c-8.984,9.393-11.308,19.375-11.97,37.016h-18.445V15.613h-23.726v120.885
		h23.726V85.923h18.271c0.353,15.98,2.112,28.158,12.144,38.402c8.604,8.778,19.649,13.263,32.993,13.263
		c13.095,0,24.281-4.444,32.808-13.263c12.124-12.535,11.965-27.211,11.965-48.286c0-0.883,0.005-9.583,0-10.701
		c0-16.608-2.884-28.313-11.965-37.486C966.243,19.01,955.177,14.581,941.984,14.581 M1093.707,98.913l-0.097,5.471
		c-1.491,24.77-22.147,34.25-42.915,33.284c-11.841-0.248-22.597-4.497-31.029-13.039c-6.029-6.085-9.23-12.275-10.736-22.382h0.049
		c-1.463-7.893-1.475-16.788-1.475-26.719v-4.81c0-23.827,2.572-33.452,11.865-42.829c8.433-8.532,19.189-12.785,31.029-13.041
		c20.769-0.965,41.424,8.522,42.923,33.292l-0.013,4.101h-21.195c-1.928-16.955-24.854-21.996-35.266-10.391
		c-5.893,6.483-5.893,18.923-5.893,30.327v6.389c0,11.928,0.498,18.925,2.022,23.763h-0.012c0.874,3.285,2.193,6.154,4.18,8.342
		c10.115,11.281,35.278,6.285,35.055-11.758H1093.707z"/>
	<rect x="554.734" y="89.116" class="st3" width="18.278" height="68.914"/>
</g>
</svg>
